<svg width="50" height="43" viewBox="0 0 50 43" fill="none" xmlns="http://www.w3.org/2000/svg">
<path d="M43.5892 5.71621C42.5126 4.63915 41.2344 3.78475 39.8275 3.20181C38.4207 2.61888 36.9128 2.31885 35.3899 2.31885C33.8671 2.31885 32.3592 2.61888 30.9523 3.20181C29.5455 3.78475 28.2672 4.63915 27.1907 5.71621L24.9565 7.95045L22.7222 5.71621C20.5476 3.54164 17.5983 2.31997 14.523 2.31997C11.4477 2.31997 8.4983 3.54164 6.32373 5.71621C4.14915 7.89079 2.92749 10.8401 2.92749 13.9155C2.92749 16.9908 4.14915 19.9401 6.32373 22.1147L8.55797 24.3489L24.9565 40.7474L41.3549 24.3489L43.5892 22.1147C44.6662 21.0381 45.5206 19.7599 46.1036 18.3531C46.6865 16.9462 46.9865 15.4383 46.9865 13.9155C46.9865 12.3926 46.6865 10.8847 46.1036 9.47784C45.5206 8.07099 44.6662 6.79277 43.5892 5.71621V5.71621Z" stroke="#03A9F4" stroke-width="4.21555" stroke-linecap="round" stroke-linejoin="round"/>
</svg>
